<svg width="592" height="706" viewBox="0 0 592 706" fill="none" xmlns="http://www.w3.org/2000/svg">
<g clip-path="url(#clip0_488_208)">
<path d="M148.745 656.514C148.745 659.467 149.276 662.296 150.246 664.911L172.886 667.01L195.526 664.911C196.496 662.296 197.027 659.467 197.027 656.514C197.027 653.561 196.496 650.732 195.526 648.117L172.886 646.018L150.246 648.117C149.276 650.732 148.745 653.561 148.745 656.514V656.514Z" fill="#FFDA44"/>
<path d="M195.526 648.117C192.115 638.924 183.266 632.373 172.886 632.373C162.506 632.373 153.657 638.924 150.246 648.117H195.526Z" fill="#D80027"/>
<path d="M150.246 664.911C153.657 674.104 162.506 680.656 172.886 680.656C183.266 680.656 192.115 674.104 195.526 664.911H150.246Z" fill="#D80027"/>
</g>
<g clip-path="url(#clip1_488_208)">
<path d="M288.764 67.4662C302.097 67.4662 312.906 56.6578 312.906 43.3249C312.906 29.992 302.097 19.1836 288.764 19.1836C275.431 19.1836 264.623 29.992 264.623 43.3249C264.623 56.6578 275.431 67.4662 288.764 67.4662Z" fill="#F0F0F0"/>
<path d="M269.613 28.6272C267.717 31.0944 266.287 33.9381 265.455 37.0273H278.014L269.613 28.6272Z" fill="#0052B4"/>
<path d="M312.074 37.0272C311.241 33.9381 309.811 31.0944 307.915 28.6272L299.515 37.0272H312.074Z" fill="#0052B4"/>
<path d="M265.455 49.6226C266.287 52.7117 267.717 55.5554 269.613 58.0225L278.013 49.6226H265.455Z" fill="#0052B4"/>
<path d="M303.462 24.174C300.995 22.2777 298.151 20.8478 295.062 20.0151V32.574L303.462 24.174Z" fill="#0052B4"/>
<path d="M274.066 62.4755C276.534 64.3719 279.377 65.8018 282.466 66.6344V54.0757L274.066 62.4755Z" fill="#0052B4"/>
<path d="M282.466 20.0151C279.377 20.8478 276.534 22.2777 274.066 24.1739L282.466 32.5739V20.0151Z" fill="#0052B4"/>
<path d="M295.062 66.6344C298.151 65.8018 300.995 64.3719 303.462 62.4756L295.062 54.0757V66.6344Z" fill="#0052B4"/>
<path d="M299.515 49.6226L307.915 58.0226C309.811 55.5555 311.241 52.7117 312.074 49.6226H299.515Z" fill="#0052B4"/>
<path d="M312.701 40.1761H291.913H291.913V19.3879C290.882 19.2538 289.832 19.1836 288.764 19.1836C287.697 19.1836 286.646 19.2538 285.616 19.3879V40.1759V40.176H264.827C264.693 41.2068 264.623 42.2577 264.623 43.3249C264.623 44.3923 264.693 45.443 264.827 46.4737H285.615H285.615V67.2619C286.646 67.3961 287.697 67.4662 288.764 67.4662C289.832 67.4662 290.882 67.3962 291.913 67.2619V46.4739V46.4738H312.701C312.836 45.443 312.906 44.3923 312.906 43.3249C312.906 42.2577 312.836 41.2068 312.701 40.1761Z" fill="#D80027"/>
<path d="M295.062 49.6227L305.835 60.3953C306.33 59.9001 306.803 59.3823 307.254 58.8455L298.031 49.6226H295.062V49.6227Z" fill="#D80027"/>
<path d="M282.467 49.6228H282.466L271.694 60.3954C272.189 60.8909 272.707 61.3635 273.244 61.8144L282.467 52.5913V49.6228Z" fill="#D80027"/>
<path d="M282.467 37.0274V37.0272L271.694 26.2544C271.198 26.7497 270.726 27.2675 270.275 27.8042L279.498 37.0273H282.467V37.0274Z" fill="#D80027"/>
<path d="M295.062 37.0273L305.835 26.2544C305.34 25.7589 304.822 25.2863 304.285 24.8354L295.062 34.0585V37.0273Z" fill="#D80027"/>
</g>
<path d="M328.475 100.298C323.426 101.224 317.924 101.685 312.416 102.148C308.285 102.61 293.146 103.532 291.31 109.083C290.392 111.396 286.722 133.587 286.722 136.825C286.722 138.213 289.016 138.212 289.016 139.137C289.016 140.063 287.181 138.212 286.263 139.137C285.345 140.063 284.886 142.373 285.345 143.761C285.653 145.624 287.904 146.934 289.016 148.385C285.932 147.254 284.63 147.731 281.828 153.163C281.644 153.518 281.625 153.781 281.522 154.087C281.125 154.211 280.637 154.225 280.298 154.395C277.086 156.246 274.794 159.018 271.581 160.406C263.319 165.033 232.582 165.951 227.993 173.353C222.876 182.193 224.624 186.015 228.145 187.686L230.745 188.148C227.745 188.731 225.632 189.127 224.016 190.46C220.651 193.234 213.31 196.317 208.416 193.234C203.522 190.152 199.545 188.611 194.651 188.302C189.757 187.994 178.745 182.754 176.298 185.836C173.851 188.919 174.157 185.836 174.463 183.679C174.768 181.521 170.181 179.671 169.263 176.281C168.346 172.89 173.851 172.89 172.322 168.575C170.792 164.259 164.063 166.417 162.228 168.266C160.392 170.116 156.416 167.958 152.745 166.417C149.075 164.876 144.792 163.026 142.957 163.026C141.122 163.026 143.263 165.8 145.71 167.033C148.157 168.266 148.157 171.657 146.322 173.198C144.486 174.74 147.239 174.123 147.239 178.13C147.239 182.137 149.381 181.829 151.828 186.145C154.275 190.46 153.051 191.385 155.804 193.543C158.557 195.7 155.192 193.851 154.887 200.324C154.581 206.797 157.639 202.79 155.804 209.571C153.969 216.353 153.051 222.518 157.639 224.059C162.228 225.6 162.534 227.45 155.498 227.141C148.463 226.833 140.816 229.607 142.651 224.675C144.487 219.743 142.346 219.127 138.981 220.977C135.616 222.826 135.004 223.134 135.004 223.134C135.004 223.134 131.945 221.593 130.416 223.442C128.886 225.292 125.828 225.908 127.051 222.826C128.275 219.743 126.439 217.894 120.628 220.36C114.816 222.826 108.086 227.45 108.086 227.45L102.581 222.21L102.886 217.894L97.9923 213.271L99.5216 211.113C99.5216 211.113 93.7099 213.271 95.5452 210.188C97.3805 207.106 98.604 204.948 98.604 204.948C98.604 204.948 96.7687 204.023 95.851 205.564C94.9335 207.106 93.7099 207.414 93.7099 207.414C93.7099 207.414 95.5452 203.715 92.4863 204.64C89.4275 205.564 87.8981 206.797 87.8981 206.797C87.8981 206.797 88.8158 202.79 86.6746 203.715C84.5334 204.64 82.0864 208.03 78.7217 205.564C75.357 203.099 75.0511 204.331 75.0511 204.331L71.3805 205.564C71.3805 205.564 71.0749 209.263 73.2158 209.572C75.357 209.88 70.4629 209.263 71.3805 212.038C72.2981 214.812 68.9334 210.805 63.1217 209.572C57.3099 208.339 60.9805 214.195 60.9805 214.195C60.9805 214.195 58.8393 214.504 56.3923 208.955C53.9452 203.407 53.9452 208.339 48.4393 208.955C42.9334 209.572 41.7099 212.962 39.8746 209.88C38.0393 206.797 28.8628 212.038 24.2746 212.654C19.6863 213.271 19.9922 220.052 20.9099 222.826C21.8275 225.601 26.1099 226.217 30.3923 224.676C34.6746 223.135 41.7099 222.518 41.7099 222.518C41.7099 222.518 32.8393 224.368 34.3687 226.217C35.5158 227.604 38.761 227.248 40.6393 226.988C40.2723 227.178 40.3717 227.565 41.7099 228.375C44.7687 230.224 40.1805 231.457 35.5922 229.299C31.004 227.142 31.9216 224.984 28.8628 227.45C25.804 229.916 31.3099 228.375 30.0863 231.765C28.8628 235.156 30.6981 234.231 33.1452 232.69C35.5922 231.149 36.5099 234.54 39.2628 235.156C42.0158 235.773 44.1569 241.938 37.1216 240.088C30.0863 238.239 22.7452 238.239 21.8275 240.704C20.9099 243.17 34.0628 243.479 34.6746 248.719C35.2863 253.959 38.3452 252.726 35.5922 255.5C32.8393 258.275 38.3452 259.508 42.3216 259.199C46.2981 258.891 43.2393 253.034 45.9922 255.5C48.7452 257.966 51.4981 258.275 52.1099 256.117C52.7217 253.959 53.0275 257.966 57.6158 261.357C62.204 264.748 64.0393 263.823 67.404 265.364C70.7687 266.905 70.4629 269.988 72.9099 270.296C75.2358 270.589 75.4343 268.967 77.804 267.214C76.9246 268.177 75.9687 269.834 76.8864 271.529C78.7217 274.92 83.3099 272.762 83.3099 269.988C83.3099 267.214 88.5099 269.063 84.5334 272.146C80.5569 275.228 83.004 272.762 82.3922 278.002C81.7805 283.243 84.5334 285.092 84.5334 281.393C84.5334 277.694 86.3687 281.393 89.4275 279.544C92.4863 277.694 92.1805 277.078 94.0158 278.927C95.851 280.777 98.2981 278.002 100.133 279.852C101.969 281.701 100.133 284.784 95.5452 282.934C90.957 281.085 93.7099 282.318 95.2397 285.708C96.7691 289.099 101.663 283.859 105.64 285.708C109.616 287.558 111.146 287.866 109.004 290.332C106.863 292.798 114.204 292.49 109.004 293.723C103.804 294.956 106.251 293.723 105.946 297.73C105.64 301.737 107.169 301.121 110.84 302.662C114.51 304.203 114.816 305.128 117.875 302.97C120.934 300.813 124.91 298.655 130.11 303.587C135.31 308.519 135.31 310.368 137.451 310.368C139.593 310.368 135.31 312.834 129.498 307.594C123.687 302.354 120.628 302.354 119.404 306.361C118.181 310.368 120.016 310.985 116.04 310.677C112.063 310.368 117.875 311.293 120.934 313.759C123.993 316.225 126.746 317.458 122.769 321.157C118.793 324.856 116.651 327.014 117.263 331.021C117.875 335.028 124.604 339.035 125.216 346.433C125.828 353.831 126.134 353.214 126.134 353.214C126.134 353.214 139.593 359.071 138.981 362.462C138.369 365.853 142.651 363.695 144.487 366.777C146.322 369.86 146.016 371.709 149.075 368.319C152.134 364.928 152.746 369.86 150.91 372.326C149.075 374.792 148.463 373.559 146.934 376.333C145.404 379.107 148.157 376.641 149.075 379.107C149.993 381.573 151.828 386.197 151.216 388.046C150.604 389.896 147.546 386.813 148.463 390.821C149.381 394.828 146.016 395.752 146.016 398.218V400.993C146.016 400.993 142.957 397.602 141.428 401.917C139.899 406.233 139.898 404.075 143.263 406.233C146.628 408.391 150.604 415.172 153.969 419.796C154.02 419.865 154.074 419.882 154.122 419.95C154.378 420.411 154.657 420.874 154.887 421.337C157.335 434.313 154.861 441.893 162.075 450.004L161.31 454.319C161.068 453.688 160.718 453.105 160.087 452.47C156.722 449.079 156.722 449.387 156.416 443.531C156.111 437.674 155.193 434.283 153.357 427.502C151.522 420.72 149.381 424.728 147.852 421.645C146.322 418.563 149.075 414.247 146.016 415.789C142.957 417.33 142.957 417.638 142.04 422.878C141.122 428.118 137.452 439.523 135.922 448.463C134.393 457.402 128.581 468.499 130.722 468.807C132.863 469.115 133.475 461.101 135.616 463.875C137.757 466.649 140.51 470.965 137.452 471.273C134.393 471.581 132.863 470.04 131.946 472.198C131.028 474.355 129.499 476.821 129.499 476.821C129.499 476.821 117.569 515.66 112.675 528.607C107.781 541.553 107.475 533.539 106.863 537.238C106.845 537.346 106.882 537.444 106.863 537.546C105.468 537.735 104.032 537.821 102.581 537.854C100.745 538.779 98.9113 539.241 96.1574 539.704C98.9113 542.479 103.957 547.101 103.957 547.101C104.875 547.564 104.416 545.252 104.875 545.252C107.17 545.715 109.922 546.638 111.299 548.489C115.429 553.115 102.12 558.659 108.087 561.435C110.841 562.36 113.592 557.273 114.51 558.198C114.97 559.124 113.592 561.435 114.51 562.36C120.936 568.374 131.026 566.056 136.993 570.682C137.452 571.145 142.04 581.933 142.499 581.933C148.465 586.559 154.426 578.231 160.852 583.783C164.064 586.559 161.767 592.568 167.734 592.568C170.488 593.03 172.321 590.256 175.075 590.718C177.829 591.181 179.204 594.417 181.957 594.88C183.334 594.88 183.333 592.106 184.71 592.106C189.3 591.643 193.426 595.342 198.475 595.804C198.475 595.804 196.332 585.169 201.84 586.095C209.643 587.483 214.226 593.028 219.275 597.654C219.734 598.117 221.11 597.654 222.028 597.654C224.323 598.117 227.075 598.116 228.452 599.503C230.747 601.354 229.368 605.513 231.663 606.901V607.363C232.581 605.05 233.957 603.202 234.416 603.202C246.35 602.277 247.265 608.285 242.675 614.299C245.888 615.687 249.557 616.61 251.852 618.46C252.77 619.386 253.227 624.471 255.981 624.009C259.653 623.546 262.862 621.235 266.993 621.235C271.583 621.235 279.379 630.483 283.969 629.095C285.805 628.632 283.969 624.934 285.346 624.009C292.231 619.383 300.484 623.545 307.828 625.396H309.663C306.91 623.083 304.158 620.774 303.24 617.998C300.027 608.746 305.994 611.067 303.699 602.74C303.239 601.352 300.028 601.816 300.028 600.428C300.487 595.339 306.451 592.57 307.369 587.944C307.369 586.556 305.075 584.708 305.993 583.783C311.5 575.918 320.673 577.773 325.263 575.46C330.312 572.684 337.65 563.286 342.698 560.51C347.288 557.734 351.874 563.746 355.546 565.596C356.922 566.521 372.981 568.369 373.44 570.22C373.899 572.07 367.47 581.936 382.157 575.922C383.19 575.46 383.116 574.906 382.463 574.227C380.505 572.189 373.667 568.836 378.486 563.284C379.683 561.676 378.08 571.386 382.463 574.227C383.124 574.656 383.947 574.937 384.91 574.998C388.123 575.46 391.791 574.074 394.086 571.761C395.463 569.911 390.415 564.672 393.169 564.209C396.382 563.746 401.428 566.519 401.428 570.22C400.969 573.921 392.71 572.684 392.251 576.385C391.792 579.16 397.297 578.234 400.051 578.234C401.887 578.234 403.721 574.997 404.639 576.385C406.475 578.698 404.18 583.319 406.475 585.632C408.77 587.945 412.438 587.481 415.651 588.406C417.487 588.406 418.862 587.944 420.239 588.406C426.665 591.645 423.451 593.954 423.451 594.879C423.91 595.805 425.286 595.804 426.663 595.804C428.04 596.267 429.874 596.266 430.792 595.342C431.71 594.417 425.285 591.643 431.251 592.106C440.431 592.568 437.214 599.042 441.345 597.654C445.017 596.266 447.767 592.106 451.898 591.181C454.709 590.776 458.615 592.448 461.074 591.335C461.225 592.089 460.868 592.165 461.992 591.643C463.98 590.718 463.369 590.102 463.827 588.098C464.286 586.094 466.58 585.016 464.133 585.17C461.686 585.324 460.156 584.708 463.521 583.628C466.323 582.73 466.261 581.334 466.427 579.313C466.902 578.352 467.035 577.267 467.345 576.539C467.394 576.425 467.578 576.475 467.65 576.385C468.569 576.119 470.021 576.789 471.932 577.464C474.991 578.543 475.603 576.077 477.133 573.148C478.662 570.22 476.674 570.374 480.038 569.141C480.545 568.955 480.973 568.914 481.415 568.833C481.464 568.822 481.521 568.844 481.568 568.833C482.439 568.909 483.287 568.866 484.015 568.679C484.275 568.679 484.436 568.554 484.626 568.525C484.728 568.47 484.837 568.442 484.932 568.371C485.205 568.264 485.362 568.174 485.391 567.755C485.409 567.715 485.376 567.64 485.391 567.601C485.671 566.947 485.666 566.26 485.543 565.443C485.518 565.286 485.569 565.136 485.543 564.981C485.868 564.133 486.69 563.285 488.755 562.207C492.14 560.438 492.897 559.832 493.802 560.511C493.828 560.526 493.776 560.647 493.802 560.665C493.804 561.142 493.9 561.689 494.108 561.898C494.567 561.898 494.433 561.493 494.26 560.973C494.318 561.034 494.351 561.058 494.413 561.127C494.983 561.766 495.801 561.659 496.86 561.127C496.835 560.937 496.729 560.671 496.708 560.511C496.565 560.485 496.385 560.568 496.249 560.511C494.951 559.966 495.192 558.7 497.625 557.12C498.234 556.725 498.809 556.438 499.155 556.349C500.105 556.106 500.127 556.936 500.073 558.045L500.99 558.199C501.941 557.45 502.488 557.032 503.743 556.041C503.628 555.236 503.285 554.467 502.978 553.729C503.397 545.804 516.007 536.5 509.708 531.844C507.413 530.456 504.203 532.306 501.449 532.768C498.695 532.768 495.485 534.156 492.731 533.231C487.683 531.843 475.755 523.062 476.214 516.585C476.214 515.66 478.508 515.661 478.508 514.736C478.049 513.348 473.46 511.963 474.837 509.187C476.673 507.337 478.966 505.952 480.343 503.639C480.802 503.176 479.425 502.252 479.884 501.327C480.344 499.939 484.472 502.252 484.931 500.865C484.931 497.164 484.473 493.468 483.096 490.693C480.801 486.992 465.66 480.987 466.579 473.585C466.579 471.272 470.707 471.273 473.002 470.811C474.379 470.811 475.296 473.585 476.673 473.123C478.968 472.66 493.65 460.641 491.355 456.477C489.978 453.702 485.391 453.243 484.014 450.004C482.637 448.154 484.472 444.919 483.555 443.069C477.129 431.966 465.195 437.527 486.308 425.036C484.472 422.261 484.474 419.027 482.179 416.714C481.72 415.788 479.885 418.564 479.426 417.638C478.967 416.25 481.261 413.94 480.343 412.552C479.884 411.164 477.132 412.553 476.214 411.628C473.46 407.001 479.885 407.468 479.426 404.692C478.967 402.379 476.214 401.457 476.214 399.143C475.755 397.756 479.426 394.983 477.591 394.52C471.624 391.744 458.78 391.742 454.649 398.219C453.731 399.144 454.191 400.068 454.191 401.455C454.65 402.381 456.944 403.304 456.485 404.23C453.731 409.781 447.31 412.091 441.802 410.703C441.343 410.703 443.638 409.779 443.638 408.853C443.638 402.839 448.226 405.155 448.685 403.767C450.98 396.365 445.012 389.9 450.52 382.961C453.733 378.334 461.99 378.34 463.826 373.251C465.203 370.475 462.449 366.317 463.826 363.079C465.662 359.378 472.084 360.769 474.838 357.53C478.051 354.755 481.719 345.51 485.849 342.272C488.145 340.422 490.438 345.512 490.897 339.036C490.897 336.722 484.014 341.349 483.555 339.036C482.637 336.722 486.308 334.875 487.685 333.025C487.685 333.025 488.602 333.487 488.602 333.025C488.602 332.099 486.767 330.251 487.685 329.788C500.536 326.087 495.021 343.668 510.626 327.476C510.167 327.476 510.167 325.63 510.167 319.616C509.708 313.139 514.297 307.135 514.756 300.659C514.756 299.734 512.92 299.735 512.92 298.347C512.461 296.034 513.379 293.725 514.297 291.411L520.72 280.623C521.179 277.847 521.638 267.678 523.014 264.44C526.686 257.038 535.86 251.498 540.909 242.709C542.744 239.47 515.215 236.236 513.379 234.848C512.002 233.46 512.921 230.688 511.544 229.3C509.249 227.449 494.568 233.462 493.65 232.074C493.191 230.686 495.027 228.838 494.108 227.913C480.339 215.422 489.522 234.39 484.014 228.375C479.424 223.749 477.133 213.118 473.461 210.805C472.084 209.417 469.332 210.805 468.414 209.418C466.119 208.492 463.368 207.106 460.614 207.106C458.319 207.106 456.027 209.418 453.273 209.418C452.814 209.88 453.273 208.031 452.814 207.568C450.978 206.643 449.145 205.719 446.85 204.794C445.473 204.331 444.097 203.869 442.72 203.869C439.507 203.407 436.298 206.644 433.544 205.256C431.249 204.331 433.085 200.171 431.708 198.321C430.79 196.933 428.497 197.859 427.12 196.934C426.661 196.471 428.956 195.547 428.956 195.084C428.496 194.159 428.038 193.235 427.12 192.772C426.202 192.31 424.826 194.16 424.367 193.697C422.531 192.309 422.074 189.536 420.238 188.149C417.025 186.761 412.438 188.15 410.603 185.374C408.767 183.524 412.438 180.752 412.438 178.439C411.979 176.588 409.226 176.128 409.226 174.277C409.226 171.964 411.061 170.117 411.52 168.267C411.979 166.879 414.273 165.493 413.355 164.568C410.143 161.792 407.392 170.115 404.179 172.89C397.753 178.905 382.614 175.203 383.991 172.428C385.368 170.115 387.661 168.731 387.661 166.418C387.661 165.03 383.991 165.031 384.45 163.181C384.45 160.405 388.12 158.096 388.12 155.321C387.202 147.456 368.391 152.086 367.473 148.385C367.014 146.535 368.391 144.225 367.932 142.374C366.555 134.972 356.462 142.378 353.708 135.901C351.872 132.2 354.628 121.569 348.661 119.256C345.907 117.868 343.615 124.342 339.944 124.342C329.846 124.342 329.393 106.775 328.475 100.298ZM4.08628 212.346C1.63923 213.271 -0.196038 215.12 1.94509 215.428C4.08629 215.737 7.1451 215.428 4.08628 212.346ZM69.2393 271.529C67.7911 271.601 67.557 273.456 69.8511 274.612C72.9099 276.153 74.7452 274.92 71.0746 272.146C70.3863 271.684 69.722 271.505 69.2393 271.529ZM77.1922 289.562C75.3263 290.185 75.4764 293.973 80.8628 296.805C87.8981 300.504 83.004 292.798 79.3334 290.024C78.8748 289.754 78.4976 289.617 78.1099 289.562C77.7709 289.512 77.4588 289.473 77.1922 289.562ZM112.98 317.766C112.98 317.766 109.616 321.157 113.286 322.082C116.957 323.006 118.486 325.164 116.651 322.698C114.815 320.232 118.792 318.999 112.98 317.766ZM106.863 333.795L105.028 337.494L110.839 338.419L106.863 333.795ZM135.31 370.168C132.251 370.168 130.11 372.634 134.698 373.251C139.286 373.867 141.733 378.182 144.792 378.182C147.851 378.182 141.733 370.168 135.31 370.168ZM139.592 384.039C137.451 386.197 138.675 391.745 141.122 396.061C143.569 400.376 145.098 395.753 144.792 392.362C144.486 388.971 142.651 387.738 139.592 384.039ZM585.875 605.052C584.039 608.753 580.369 611.523 579.91 615.224C579.451 618.462 582.664 624.471 579.91 624.471C576.697 624.471 574.405 620.772 571.651 621.235C569.356 621.697 569.358 625.858 567.063 627.246C565.227 628.171 562.934 626.32 561.098 627.246C558.803 628.171 558.346 631.407 556.051 631.869C555.133 632.332 554.216 629.094 553.757 630.02C551.921 632.795 552.381 636.953 551.463 640.192C550.545 641.58 545.498 640.191 545.957 642.041C547.334 644.817 551.922 646.201 551.922 648.977C551.922 652.215 545.957 653.137 546.416 655.912C547.334 659.613 554.216 658.685 554.675 662.386C555.134 665.624 547.792 667.47 548.71 671.171C549.169 673.946 556.51 668.395 556.969 671.171C557.428 674.872 550.087 676.717 550.087 680.418C549.627 683.656 555.133 684.578 556.51 687.354C557.428 689.204 554.674 691.052 555.592 692.44C559.723 699.379 563.39 694.75 569.357 696.601C570.734 697.064 568.896 710.476 575.322 703.999C577.617 701.223 576.239 697.065 577.616 693.827C578.534 692.439 581.287 692.441 581.287 690.59C581.746 689.665 578.534 691.053 578.534 689.665C578.534 688.74 580.828 689.666 581.287 688.741C586.335 683.189 584.04 674.873 584.04 668.859C584.04 663.307 591.84 657.304 591.381 649.439C591.381 646.664 591.381 636.495 590.004 633.256C589.8 632.741 589.515 632.2 589.24 631.715C589.562 631.874 589.661 631.87 589.545 631.407C588.627 629.556 585.875 624.47 586.334 626.321C587.022 628.403 588.14 629.935 589.087 631.561C588.054 630.924 585.875 628.572 585.875 627.246C585.875 622.157 592.301 609.678 585.875 605.052Z" fill="#3A2AFA"/>
<path d="M382.463 574.227C383.116 574.906 383.19 575.46 382.157 575.922C367.47 581.936 373.899 572.07 373.44 570.22C372.981 568.369 356.922 566.521 355.546 565.596C351.874 563.746 347.288 557.734 342.698 560.51C337.65 563.286 330.312 572.684 325.263 575.46C320.673 577.773 311.5 575.918 305.993 583.783C305.075 584.708 307.369 586.556 307.369 587.944C306.451 592.57 300.487 595.339 300.028 600.428C300.028 601.816 303.239 601.352 303.699 602.74C305.994 611.067 300.027 608.746 303.24 617.998C304.158 620.774 306.91 623.083 309.663 625.396H307.828C300.484 623.545 292.231 619.383 285.346 624.009C283.969 624.934 285.805 628.632 283.969 629.095C279.379 630.483 271.583 621.235 266.993 621.235C262.862 621.235 259.653 623.546 255.981 624.009C253.227 624.471 252.77 619.386 251.852 618.46C249.557 616.61 245.888 615.687 242.675 614.299C247.265 608.285 246.35 602.277 234.416 603.202C233.957 603.202 232.581 605.05 231.663 607.363V606.901C229.368 605.513 230.747 601.354 228.452 599.503C227.075 598.116 224.323 598.117 222.028 597.654C221.11 597.654 219.734 598.117 219.275 597.654C214.226 593.028 209.643 587.483 201.84 586.095C196.332 585.169 198.475 595.804 198.475 595.804C193.426 595.342 189.3 591.643 184.71 592.106C183.333 592.106 183.334 594.88 181.957 594.88C179.204 594.417 177.829 591.181 175.075 590.718C172.321 590.256 170.488 593.03 167.734 592.568C161.767 592.568 164.065 586.559 160.852 583.783C154.426 578.231 148.465 586.559 142.499 581.933C142.04 581.933 137.452 571.145 136.993 570.682C131.026 566.056 120.936 568.374 114.51 562.36C113.592 561.435 114.97 559.124 114.51 558.198C113.592 557.273 110.841 562.36 108.087 561.435C102.12 558.659 115.429 553.115 111.299 548.489C109.922 546.638 107.17 545.715 104.875 545.252C104.416 545.252 104.875 547.564 103.957 547.101C103.957 547.101 98.9113 542.479 96.1574 539.704C98.9113 539.241 100.745 538.779 102.581 537.854C104.032 537.821 105.468 537.735 106.863 537.546C106.882 537.444 106.845 537.346 106.863 537.238C107.475 533.539 107.781 541.553 112.675 528.607C117.569 515.66 129.499 476.821 129.499 476.821C129.499 476.821 131.028 474.355 131.946 472.198C132.863 470.04 134.393 471.581 137.452 471.273C140.51 470.965 137.757 466.649 135.616 463.875C133.475 461.101 132.863 469.115 130.722 468.807C128.581 468.499 134.393 457.402 135.922 448.463C137.452 439.523 141.122 428.118 142.04 422.878C142.957 417.638 142.957 417.33 146.016 415.789C149.075 414.247 146.322 418.563 147.852 421.645C149.381 424.728 151.522 420.72 153.357 427.502C155.193 434.283 156.111 437.674 156.416 443.531C156.722 449.387 156.722 449.079 160.087 452.47C160.718 453.105 161.068 453.688 161.31 454.319L162.075 450.004C154.861 441.893 157.335 434.313 154.887 421.337C154.657 420.874 154.378 420.411 154.122 419.95C154.074 419.882 154.02 419.865 153.969 419.796C150.604 415.172 146.628 408.391 143.263 406.233C139.898 404.075 139.899 406.233 141.428 401.917C142.957 397.602 146.016 400.993 146.016 400.993V398.218C146.016 395.752 149.381 394.828 148.463 390.821C147.546 386.813 150.604 389.896 151.216 388.046C151.828 386.197 149.993 381.573 149.075 379.107C148.157 376.641 145.404 379.107 146.934 376.333C148.463 373.559 149.075 374.792 150.91 372.326C152.746 369.86 152.134 364.928 149.075 368.319C146.016 371.709 146.322 369.86 144.487 366.777C142.651 363.695 138.369 365.853 138.981 362.462C139.593 359.071 126.134 353.214 126.134 353.214C126.134 353.214 125.828 353.831 125.216 346.433C124.604 339.035 117.875 335.028 117.263 331.021C116.651 327.014 118.793 324.856 122.769 321.157C126.746 317.458 123.993 316.225 120.934 313.759C117.875 311.293 112.063 310.368 116.04 310.677C120.016 310.985 118.181 310.368 119.404 306.361C120.628 302.354 123.687 302.354 129.498 307.594C135.31 312.834 139.593 310.368 137.451 310.368C135.31 310.368 135.31 308.519 130.11 303.587C124.91 298.655 120.934 300.813 117.875 302.97C114.816 305.128 114.51 304.203 110.84 302.662C107.169 301.121 105.64 301.737 105.946 297.73C106.251 293.723 103.804 294.956 109.004 293.723C114.204 292.49 106.863 292.798 109.004 290.332C111.146 287.866 109.616 287.558 105.64 285.708C101.663 283.859 96.7691 289.099 95.2397 285.708C93.7099 282.318 90.957 281.085 95.5452 282.934C100.133 284.784 101.969 281.701 100.133 279.852C98.2981 278.002 95.851 280.777 94.0158 278.927C92.1805 277.078 92.4863 277.694 89.4275 279.544C86.3687 281.393 84.5334 277.694 84.5334 281.393C84.5334 285.092 81.7805 283.243 82.3922 278.002C83.004 272.762 80.5569 275.228 84.5334 272.146C88.5099 269.063 83.3099 267.214 83.3099 269.988C83.3099 272.762 78.7217 274.92 76.8864 271.529C75.9687 269.834 76.9246 268.177 77.804 267.214C75.4343 268.967 75.2358 270.589 72.9099 270.296C70.4629 269.988 70.7687 266.905 67.404 265.364C64.0393 263.823 62.204 264.748 57.6158 261.357C53.0275 257.966 52.7217 253.959 52.1099 256.117C51.4981 258.275 48.7452 257.966 45.9922 255.5C43.2393 253.034 46.2981 258.891 42.3216 259.199C38.3452 259.508 32.8393 258.275 35.5922 255.5C38.3452 252.726 35.2863 253.959 34.6746 248.719C34.0628 243.479 20.9099 243.17 21.8275 240.705C22.7452 238.239 30.0863 238.239 37.1216 240.088C44.1569 241.938 42.0158 235.773 39.2628 235.156C36.5099 234.54 35.5922 231.149 33.1452 232.69C30.6981 234.231 28.8628 235.156 30.0863 231.765C31.3099 228.375 25.804 229.916 28.8628 227.45C31.9216 224.984 31.004 227.142 35.5922 229.299C40.1805 231.457 44.7687 230.224 41.7099 228.375C40.3717 227.565 40.2723 227.178 40.6393 226.988C38.761 227.248 35.5158 227.604 34.3687 226.217C32.8393 224.367 41.7099 222.518 41.7099 222.518C41.7099 222.518 34.6746 223.135 30.3923 224.676C26.1099 226.217 21.8275 225.601 20.9099 222.826C19.9922 220.052 19.6863 213.271 24.2746 212.654C28.8628 212.038 38.0393 206.797 39.8746 209.88C41.7099 212.962 42.9334 209.572 48.4393 208.955C53.9452 208.339 53.9452 203.407 56.3923 208.955C58.8393 214.504 60.9805 214.195 60.9805 214.195C60.9805 214.195 57.3099 208.339 63.1217 209.572C68.9334 210.805 72.2981 214.812 71.3805 212.038C70.4629 209.263 75.357 209.88 73.2158 209.572C71.0749 209.263 71.3805 205.564 71.3805 205.564L75.0511 204.331C75.0511 204.331 75.357 203.099 78.7217 205.564C82.0864 208.03 84.5334 204.64 86.6746 203.715C88.8158 202.79 87.8981 206.797 87.8981 206.797C87.8981 206.797 89.4275 205.564 92.4863 204.64C95.5452 203.715 93.7099 207.414 93.7099 207.414C93.7099 207.414 94.9335 207.106 95.851 205.564C96.7687 204.023 98.604 204.948 98.604 204.948C98.604 204.948 97.3805 207.106 95.5452 210.188C93.7099 213.271 99.5216 211.113 99.5216 211.113L97.9923 213.271L102.886 217.894L102.581 222.21L108.086 227.45C108.086 227.45 114.816 222.826 120.628 220.36C126.439 217.894 128.275 219.743 127.051 222.826C125.828 225.908 128.886 225.292 130.416 223.442C131.945 221.593 135.004 223.134 135.004 223.134C135.004 223.134 135.616 222.826 138.981 220.977C142.346 219.127 144.487 219.743 142.651 224.675C140.816 229.607 148.463 226.833 155.498 227.141C162.534 227.45 162.228 225.6 157.639 224.059C153.051 222.518 153.969 216.353 155.804 209.571C157.639 202.79 154.581 206.797 154.887 200.324C155.192 193.851 158.557 195.7 155.804 193.543C153.051 191.385 154.275 190.46 151.828 186.145C149.381 181.829 147.239 182.137 147.239 178.13C147.239 174.123 144.486 174.74 146.322 173.198C148.157 171.657 148.157 168.266 145.71 167.033C143.263 165.8 141.122 163.026 142.957 163.026C144.792 163.026 149.075 164.876 152.745 166.417C156.416 167.958 160.392 170.116 162.228 168.266C164.063 166.417 170.792 164.259 172.322 168.575C173.851 172.89 168.346 172.89 169.263 176.281C170.181 179.671 174.768 181.521 174.463 183.679C174.157 185.836 173.851 188.919 176.298 185.836C178.745 182.754 189.757 187.994 194.651 188.302C199.545 188.611 203.522 190.152 208.416 193.234C213.31 196.317 220.651 193.234 224.016 190.46C225.632 189.127 227.745 188.731 230.745 188.148L228.145 187.686C224.624 186.015 222.876 182.193 227.993 173.353C232.582 165.951 263.319 165.033 271.581 160.406C274.794 159.018 277.086 156.246 280.298 154.395C280.637 154.225 281.125 154.211 281.522 154.087C281.626 153.781 281.644 153.518 281.828 153.163C284.63 147.731 285.932 147.254 289.016 148.385C287.904 146.934 285.653 145.624 285.345 143.761C284.886 142.373 285.345 140.063 286.263 139.137C287.181 138.212 289.016 140.063 289.016 139.137C289.016 138.212 286.722 138.213 286.722 136.825C286.722 133.587 290.392 111.396 291.31 109.083C293.146 103.532 308.285 102.61 312.416 102.148C317.924 101.685 323.426 101.224 328.475 100.298C329.393 106.775 329.846 124.342 339.944 124.342C343.615 124.342 345.907 117.868 348.661 119.256C354.628 121.569 351.872 132.2 353.708 135.901C356.462 142.378 366.555 134.972 367.932 142.374C368.391 144.225 367.014 146.535 367.473 148.385C368.391 152.086 387.202 147.456 388.12 155.321C388.12 158.096 384.45 160.405 384.45 163.181C383.991 165.031 387.661 165.03 387.661 166.418C387.661 168.731 385.368 170.115 383.991 172.428C382.614 175.203 397.753 178.905 404.179 172.89C407.392 170.115 410.143 161.792 413.356 164.568C414.273 165.493 411.979 166.879 411.52 168.267C411.061 170.117 409.226 171.964 409.226 174.277C409.226 176.128 411.979 176.588 412.438 178.439C412.438 180.752 408.767 183.524 410.603 185.374C412.438 188.15 417.025 186.761 420.238 188.149C422.074 189.536 422.531 192.309 424.367 193.697C424.826 194.16 426.202 192.31 427.12 192.772C428.038 193.235 428.496 194.159 428.956 195.084C428.956 195.547 426.661 196.471 427.12 196.934C428.497 197.859 430.79 196.933 431.708 198.321C433.085 200.171 431.249 204.331 433.544 205.256C436.298 206.644 439.507 203.407 442.72 203.869C444.097 203.869 445.473 204.331 446.85 204.794C449.145 205.719 450.978 206.643 452.814 207.568C453.273 208.031 452.814 209.88 453.273 209.418C456.027 209.418 458.319 207.106 460.614 207.106C463.368 207.106 466.119 208.492 468.414 209.418C469.332 210.805 472.084 209.417 473.461 210.805C477.133 213.118 479.424 223.749 484.014 228.375C489.522 234.39 480.339 215.422 494.108 227.913C495.027 228.838 493.191 230.686 493.65 232.074C494.568 233.462 509.249 227.449 511.544 229.3C512.921 230.688 512.002 233.46 513.379 234.848C515.215 236.236 542.744 239.47 540.909 242.709C535.86 251.498 526.686 257.038 523.014 264.44C521.637 267.678 521.179 277.847 520.72 280.623L514.297 291.411C513.379 293.725 512.461 296.034 512.92 298.347C512.92 299.735 514.756 299.734 514.756 300.659C514.297 307.135 509.708 313.139 510.167 319.616C510.167 325.63 510.167 327.476 510.626 327.476C495.021 343.668 500.536 326.087 487.685 329.788C486.767 330.251 488.602 332.099 488.602 333.025C488.602 333.487 487.685 333.025 487.685 333.025C486.308 334.875 482.637 336.722 483.555 339.036C484.014 341.349 490.897 336.722 490.897 339.036C490.438 345.512 488.145 340.422 485.849 342.272C481.719 345.51 478.051 354.755 474.838 357.53C472.084 360.769 465.662 359.378 463.826 363.079C462.449 366.317 465.203 370.475 463.826 373.251C461.99 378.34 453.733 378.334 450.52 382.961C445.012 389.9 450.98 396.365 448.685 403.767C448.226 405.155 443.638 402.839 443.638 408.853C443.638 409.779 441.343 410.703 441.802 410.703C447.31 412.091 453.731 409.781 456.485 404.23C456.944 403.304 454.65 402.381 454.191 401.455C454.191 400.068 453.731 399.144 454.649 398.219C458.78 391.742 471.624 391.744 477.591 394.52C479.426 394.983 475.755 397.756 476.214 399.144C476.214 401.457 478.967 402.379 479.426 404.692C479.885 407.468 473.46 407.001 476.214 411.628C477.132 412.553 479.884 411.164 480.343 412.552C481.261 413.94 478.967 416.25 479.426 417.638C479.885 418.564 481.72 415.788 482.179 416.714C484.474 419.027 484.472 422.261 486.308 425.036C465.195 437.527 477.129 431.966 483.555 443.069C484.472 444.919 482.637 448.154 484.014 450.004C485.391 453.243 489.978 453.702 491.355 456.477C493.65 460.641 478.968 472.66 476.673 473.123C475.296 473.585 474.379 470.811 473.002 470.811C470.707 471.273 466.579 471.272 466.579 473.585C465.66 480.987 480.801 486.992 483.096 490.693C484.473 493.468 484.931 497.164 484.931 500.865C484.472 502.252 480.343 499.939 479.884 501.327C479.425 502.252 480.802 503.176 480.343 503.639C478.966 505.952 476.673 507.337 474.837 509.187C473.46 511.963 478.049 513.348 478.508 514.736C478.508 515.661 476.214 515.66 476.214 516.585C475.755 523.062 487.683 531.843 492.731 533.231C495.485 534.156 498.695 532.768 501.449 532.768C504.203 532.306 507.413 530.456 509.708 531.844C516.007 536.5 503.397 545.804 502.978 553.729C503.285 554.467 503.628 555.236 503.743 556.041C502.488 557.032 501.941 557.45 500.99 558.199L500.073 558.045C500.127 556.936 500.105 556.106 499.155 556.349C498.809 556.438 498.234 556.725 497.625 557.12C495.192 558.7 494.951 559.966 496.249 560.511C496.385 560.568 496.565 560.485 496.708 560.511C496.729 560.671 496.835 560.937 496.86 561.127C495.801 561.659 494.983 561.766 494.413 561.127C494.351 561.058 494.318 561.034 494.26 560.973C494.433 561.493 494.567 561.898 494.108 561.898C493.9 561.689 493.804 561.142 493.802 560.665C493.776 560.647 493.828 560.526 493.802 560.511C492.897 559.832 492.14 560.438 488.755 562.207C486.69 563.285 485.868 564.133 485.543 564.981C485.569 565.136 485.518 565.286 485.543 565.443C485.666 566.26 485.671 566.947 485.391 567.601C485.376 567.64 485.409 567.715 485.391 567.755C485.362 568.174 485.205 568.264 484.932 568.371C484.837 568.442 484.728 568.47 484.626 568.525C484.436 568.554 484.274 568.679 484.015 568.679C483.287 568.866 482.439 568.909 481.568 568.833C481.521 568.844 481.464 568.822 481.415 568.833C480.973 568.914 480.545 568.955 480.038 569.141C476.674 570.374 478.662 570.22 477.133 573.148C475.603 576.077 474.991 578.543 471.932 577.464C470.021 576.789 468.569 576.119 467.65 576.385C467.578 576.475 467.394 576.425 467.345 576.539C467.035 577.267 466.902 578.352 466.427 579.313C466.261 581.334 466.323 582.73 463.521 583.628C460.156 584.708 461.686 585.324 464.133 585.17C466.58 585.016 464.286 586.094 463.827 588.098C463.369 590.102 463.98 590.718 461.992 591.643C460.868 592.165 461.225 592.089 461.074 591.335C458.615 592.448 454.709 590.776 451.898 591.181C447.767 592.106 445.017 596.266 441.345 597.654C437.214 599.042 440.431 592.568 431.251 592.106C425.285 591.643 431.71 594.417 430.792 595.342C429.874 596.266 428.04 596.267 426.663 595.804C425.286 595.804 423.91 595.805 423.451 594.879C423.451 593.954 426.665 591.645 420.239 588.406C418.862 587.944 417.487 588.406 415.651 588.406C412.438 587.481 408.77 587.945 406.475 585.632C404.18 583.319 406.475 578.698 404.639 576.385C403.721 574.997 401.887 578.234 400.051 578.234C397.297 578.234 391.792 579.16 392.251 576.385C392.71 572.684 400.969 573.921 401.428 570.22C401.428 566.519 396.382 563.746 393.169 564.209C390.415 564.672 395.463 569.911 394.086 571.761C391.791 574.074 388.123 575.46 384.91 574.998C383.947 574.937 383.124 574.656 382.463 574.227ZM382.463 574.227C380.505 572.189 373.667 568.836 378.486 563.284C379.683 561.676 378.08 571.386 382.463 574.227ZM4.08628 212.346C1.63923 213.271 -0.196038 215.12 1.94509 215.428C4.08629 215.737 7.1451 215.428 4.08628 212.346ZM69.2393 271.529C67.7911 271.601 67.557 273.456 69.8511 274.612C72.9098 276.153 74.7452 274.92 71.0746 272.146C70.3863 271.684 69.722 271.505 69.2393 271.529ZM77.1922 289.562C75.3263 290.185 75.4764 293.973 80.8628 296.805C87.8981 300.504 83.004 292.798 79.3334 290.024C78.8748 289.754 78.4976 289.617 78.1099 289.562C77.7709 289.512 77.4588 289.473 77.1922 289.562ZM112.98 317.766C112.98 317.766 109.616 321.157 113.286 322.082C116.957 323.006 118.486 325.164 116.651 322.698C114.815 320.232 118.792 318.999 112.98 317.766ZM106.863 333.795L105.028 337.494L110.839 338.419L106.863 333.795ZM135.31 370.168C132.251 370.168 130.11 372.634 134.698 373.251C139.286 373.867 141.733 378.182 144.792 378.182C147.851 378.182 141.733 370.168 135.31 370.168ZM139.592 384.039C137.451 386.197 138.675 391.745 141.122 396.061C143.569 400.376 145.098 395.753 144.792 392.362C144.486 388.971 142.651 387.738 139.592 384.039ZM585.875 605.052C584.039 608.753 580.369 611.523 579.91 615.224C579.451 618.462 582.664 624.471 579.91 624.471C576.697 624.471 574.405 620.772 571.651 621.235C569.356 621.697 569.358 625.858 567.063 627.246C565.227 628.171 562.934 626.32 561.098 627.246C558.803 628.171 558.346 631.407 556.051 631.869C555.133 632.332 554.216 629.095 553.757 630.02C551.921 632.795 552.381 636.954 551.463 640.192C550.545 641.58 545.498 640.191 545.957 642.041C547.334 644.817 551.922 646.201 551.922 648.977C551.922 652.215 545.957 653.137 546.416 655.912C547.334 659.613 554.216 658.685 554.675 662.386C555.134 665.624 547.792 667.47 548.71 671.171C549.169 673.946 556.51 668.395 556.969 671.171C557.428 674.872 550.087 676.717 550.087 680.418C549.627 683.656 555.133 684.578 556.51 687.354C557.428 689.204 554.674 691.052 555.592 692.44C559.723 699.379 563.39 694.75 569.357 696.601C570.734 697.064 568.896 710.476 575.322 703.999C577.617 701.223 576.239 697.065 577.616 693.827C578.534 692.439 581.287 692.441 581.287 690.59C581.746 689.665 578.534 691.053 578.534 689.665C578.534 688.74 580.828 689.666 581.287 688.741C586.335 683.189 584.04 674.873 584.04 668.859C584.04 663.307 591.84 657.304 591.381 649.439C591.381 646.664 591.381 636.495 590.004 633.256C589.8 632.741 589.515 632.2 589.24 631.715C589.562 631.874 589.661 631.87 589.545 631.407C588.627 629.556 585.875 624.47 586.334 626.321C587.022 628.403 588.14 629.935 589.087 631.561C588.054 630.924 585.875 628.572 585.875 627.246C585.875 622.157 592.301 609.678 585.875 605.052Z" stroke="white" stroke-width="0.400821"/>
<circle cx="320.148" cy="102.712" r="7.24239" fill="#FF0000"/>
<circle cx="301.801" cy="104.644" r="7.24239" fill="#FF0000"/>
<circle cx="141.503" cy="225.35" r="7.24239" fill="#FF0000"/>
<circle cx="155.987" cy="165.48" r="7.24239" fill="#FF0000"/>
<circle cx="226.48" cy="182.862" r="7.24239" fill="#FF0000"/>
<circle cx="428.301" cy="591.332" r="7.24239" fill="#FF0000"/>
<circle cx="332.702" cy="569.123" r="7.24239" fill="#FF0000"/>
<circle cx="267.037" cy="162.583" r="7.24239" fill="#FF0000"/>
<path d="M318.002 612.404L317.123 611.927L318.002 612.404ZM260.336 655.878L260.552 656.855L260.336 655.878ZM237.047 661.761C236.581 661.465 236.444 660.846 236.741 660.381L241.578 652.791C241.875 652.325 242.493 652.188 242.959 652.485C243.425 652.782 243.562 653.4 243.265 653.866L238.965 660.612L245.712 664.912C246.177 665.209 246.314 665.827 246.018 666.293C245.721 666.758 245.103 666.895 244.637 666.598L237.047 661.761ZM335.279 582.636L334.254 584.526L332.496 583.573L333.521 581.682L335.279 582.636ZM332.204 588.306L330.155 592.087L328.396 591.134L330.446 587.353L332.204 588.306ZM328.105 595.868L326.055 599.648L324.297 598.695L326.347 594.914L328.105 595.868ZM324.006 603.429L321.956 607.209L320.198 606.256L322.247 602.476L324.006 603.429ZM319.906 610.99L318.881 612.88L317.123 611.927L318.148 610.037L319.906 610.99ZM318.881 612.88C318.548 613.494 318.209 614.104 317.862 614.708L316.127 613.713C316.466 613.123 316.798 612.527 317.123 611.927L318.881 612.88ZM315.695 618.288C314.943 619.466 314.164 620.624 313.36 621.761L311.728 620.606C312.513 619.495 313.274 618.363 314.009 617.212L315.695 618.288ZM310.864 625.118C310.004 626.219 309.119 627.297 308.21 628.353L306.694 627.048C307.582 626.017 308.447 624.963 309.288 623.887L310.864 625.118ZM305.405 631.458C304.444 632.472 303.461 633.462 302.455 634.427L301.071 632.984C302.053 632.041 303.014 631.073 303.953 630.083L305.405 631.458ZM299.368 637.252C298.317 638.169 297.244 639.061 296.151 639.926L294.909 638.358C295.978 637.512 297.026 636.641 298.054 635.744L299.368 637.252ZM292.809 642.445C291.676 643.258 290.523 644.044 289.352 644.803L288.265 643.124C289.41 642.383 290.536 641.615 291.644 640.82L292.809 642.445ZM285.787 646.993C284.582 647.694 283.36 648.367 282.122 649.012L281.199 647.237C282.409 646.608 283.604 645.95 284.781 645.265L285.787 646.993ZM278.364 650.854C277.099 651.437 275.819 651.991 274.524 652.515L273.774 650.661C275.039 650.149 276.291 649.607 277.527 649.037L278.364 650.854ZM270.609 653.991C269.295 654.451 267.967 654.881 266.628 655.28L266.057 653.363C267.366 652.973 268.664 652.553 269.948 652.104L270.609 653.991ZM262.59 656.378C261.913 656.545 261.234 656.704 260.552 656.855L260.119 654.902C260.786 654.754 261.45 654.599 262.111 654.436L262.59 656.378ZM260.552 656.855L258.656 657.275L258.223 655.322L260.119 654.902L260.552 656.855ZM254.864 658.115L251.072 658.955L250.64 657.002L254.432 656.162L254.864 658.115ZM247.28 659.795L243.489 660.635L243.056 658.682L246.848 657.842L247.28 659.795ZM239.697 661.474L237.801 661.894L237.368 659.942L239.264 659.522L239.697 661.474ZM318.002 612.404L317.123 611.927L318.002 612.404ZM260.336 655.878L260.552 656.855L260.336 655.878ZM237.047 661.761C236.581 661.465 236.444 660.846 236.741 660.381L241.578 652.791C241.875 652.325 242.493 652.188 242.959 652.485C243.425 652.782 243.562 653.4 243.265 653.866L238.965 660.612L245.712 664.912C246.177 665.209 246.314 665.827 246.018 666.293C245.721 666.758 245.103 666.895 244.637 666.598L237.047 661.761ZM335.279 582.636L334.254 584.526L332.496 583.573L333.521 581.682L335.279 582.636ZM332.204 588.306L330.155 592.087L328.396 591.134L330.446 587.353L332.204 588.306ZM328.105 595.868L326.055 599.648L324.297 598.695L326.347 594.914L328.105 595.868ZM324.006 603.429L321.956 607.209L320.198 606.256L322.247 602.476L324.006 603.429ZM319.906 610.99L318.881 612.88L317.123 611.927L318.148 610.037L319.906 610.99ZM318.881 612.88C318.548 613.494 318.209 614.104 317.862 614.708L316.127 613.713C316.466 613.123 316.798 612.527 317.123 611.927L318.881 612.88ZM315.695 618.288C314.943 619.466 314.164 620.624 313.36 621.761L311.728 620.606C312.513 619.495 313.274 618.363 314.009 617.212L315.695 618.288ZM310.864 625.118C310.004 626.219 309.119 627.297 308.21 628.353L306.694 627.048C307.582 626.017 308.447 624.963 309.288 623.887L310.864 625.118ZM305.405 631.458C304.444 632.472 303.461 633.462 302.455 634.427L301.071 632.984C302.053 632.041 303.014 631.073 303.953 630.083L305.405 631.458ZM299.368 637.252C298.317 638.169 297.244 639.061 296.151 639.926L294.909 638.358C295.978 637.512 297.026 636.641 298.054 635.744L299.368 637.252ZM292.809 642.445C291.676 643.258 290.523 644.044 289.352 644.803L288.265 643.124C289.41 642.383 290.536 641.615 291.644 640.82L292.809 642.445ZM285.787 646.993C284.582 647.694 283.36 648.367 282.122 649.012L281.199 647.237C282.409 646.608 283.604 645.95 284.781 645.265L285.787 646.993ZM278.364 650.854C277.099 651.437 275.819 651.991 274.524 652.515L273.774 650.661C275.039 650.149 276.291 649.607 277.527 649.037L278.364 650.854ZM270.609 653.991C269.295 654.451 267.967 654.881 266.628 655.28L266.057 653.363C267.366 652.973 268.664 652.553 269.948 652.104L270.609 653.991ZM262.59 656.378C261.913 656.545 261.234 656.704 260.552 656.855L260.119 654.902C260.786 654.754 261.45 654.599 262.111 654.436L262.59 656.378ZM260.552 656.855L258.656 657.275L258.223 655.322L260.119 654.902L260.552 656.855ZM254.864 658.115L251.072 658.955L250.64 657.002L254.432 656.162L254.864 658.115ZM247.28 659.795L243.489 660.635L243.056 658.682L246.848 657.842L247.28 659.795ZM239.697 661.474L237.801 661.894L237.368 659.942L239.264 659.522L239.697 661.474Z" fill="#FF0000"/>
<g clip-path="url(#clip2_488_208)">
<path d="M219.238 49.1188C232.57 49.1188 243.379 38.3104 243.379 24.9775C243.379 11.6446 232.57 0.836182 219.238 0.836182C205.905 0.836182 195.096 11.6446 195.096 24.9775C195.096 38.3104 205.905 49.1188 219.238 49.1188Z" fill="#F0F0F0"/>
<path d="M243.379 24.9775C243.379 14.5977 236.827 5.74879 227.634 2.33789V47.6175C236.827 44.2063 243.379 35.3576 243.379 24.9775Z" fill="#FF9811"/>
<path d="M195.096 24.9775C195.096 35.3576 201.648 44.2063 210.841 47.6174V2.33789C201.648 5.74879 195.096 14.5977 195.096 24.9775Z" fill="#6DA544"/>
</g>
<defs>
<clipPath id="clip0_488_208">
<rect width="48.2826" height="48.2826" fill="white" transform="translate(148.745 632.373)"/>
</clipPath>
<clipPath id="clip1_488_208">
<rect width="48.2826" height="48.2826" fill="white" transform="translate(264.623 19.1836)"/>
</clipPath>
<clipPath id="clip2_488_208">
<rect width="48.2826" height="48.2826" fill="white" transform="translate(195.096 0.836182)"/>
</clipPath>
</defs>
</svg>
