<svg width="791" height="129" viewBox="0 0 791 129" fill="none" xmlns="http://www.w3.org/2000/svg">
<path fill-rule="evenodd" clip-rule="evenodd" d="M8.41406 66.3069C8.66604 66.4294 9.05717 66.1695 9.7125 65.7341C11.2139 64.7365 14.1022 62.8174 19.8811 62.464C24.1485 62.2015 28.6298 63.6566 33.6099 65.2736C39.2322 67.0991 45.4902 69.131 52.7938 69.131C65.0042 69.131 71.329 63.1541 70.8955 62.2017C70.7654 61.9184 69.7281 61.5288 68.1249 60.9266C66.1459 60.1834 63.3045 59.1162 60.2421 57.5251C60.0214 57.4105 59.8002 57.2959 59.5788 57.1811C56.8304 55.7564 54.0335 54.3066 51.3274 52.5317C53.7653 51.9544 56.2608 51.6658 58.8141 51.6658C69.9207 51.6658 77.3874 55.9125 81.2141 64.4058C84.1074 60.4858 87.7941 57.4058 92.2741 55.1658C96.8474 52.8325 101.607 51.6658 106.554 51.6658C114.954 51.6658 121.254 54.0925 125.454 58.9458C129.654 63.7058 131.754 70.5191 131.754 79.3858V127.266H103.894V82.7458C103.894 79.5725 103.101 77.0525 101.514 75.1858C100.021 73.2258 97.8741 72.2458 95.0741 72.2458C91.8074 72.2458 89.1474 73.3658 87.0941 75.6058C85.0407 77.8458 84.0141 80.5991 84.0141 83.8658V127.266H56.1541V82.7458C56.1541 79.5725 55.3607 77.0525 53.7741 75.1858C52.2807 73.2258 50.1341 72.2458 47.3341 72.2458C44.0674 72.2458 41.4074 73.3658 39.3541 75.6058C37.3007 77.8458 36.2741 80.5991 36.2741 83.8658V127.266H8.41406V66.3069ZM202.734 57.4058C195.641 53.5791 186.447 51.6658 175.154 51.6658C162.741 51.6658 153.174 53.7191 146.454 57.8258C139.827 61.9325 136.514 67.4858 136.514 74.4858C136.514 75.3258 136.561 75.9791 136.654 76.4458H164.094V75.8858C164.094 73.6458 165.121 72.0125 167.174 70.9858C169.321 69.9591 171.841 69.4458 174.734 69.4458C177.907 69.4458 180.474 70.1925 182.434 71.6858C184.487 73.1791 185.514 75.3725 185.514 78.2658V81.9058C173.754 81.9058 164.234 82.6058 156.954 84.0058C149.674 85.4058 144.074 88.0191 140.154 91.8458C136.327 95.5791 134.414 101.039 134.414 108.226C134.414 122.039 143.094 128.946 160.454 128.946C166.334 128.946 171.467 128.106 175.854 126.426C180.241 124.746 184.207 122.506 187.754 119.706C189.061 122.599 191.441 124.886 194.894 126.566C198.441 128.152 202.921 128.946 208.334 128.946C211.134 128.946 213.607 128.712 215.754 128.246C217.901 127.872 219.534 127.499 220.654 127.126C221.299 126.878 221.812 126.669 222.193 126.5V127.266H250.053V94.3658C250.053 88.4858 251.313 84.0525 253.833 81.0658C256.446 78.0791 260.646 76.5858 266.433 76.5858H275.393V53.2058C275.393 53.1125 274.553 52.8325 272.873 52.3658C271.193 51.8058 269.28 51.5258 267.133 51.5258C262.56 51.5258 258.453 52.6458 254.813 54.8858C251.173 57.0325 248.513 60.2525 246.833 64.5458L245.013 53.3458H222.193V110.046H217.854C216.361 110.046 215.241 109.532 214.494 108.506C213.747 107.479 213.374 106.172 213.374 104.586V75.7458C213.374 67.2525 209.827 61.1391 202.734 57.4058ZM162.274 104.586C162.274 101.692 164.141 99.4058 167.874 97.7258C171.701 95.9525 177.581 95.0658 185.514 95.0658V101.366C185.514 104.259 184.114 106.686 181.314 108.646C178.607 110.606 175.434 111.586 171.794 111.586C165.447 111.586 162.274 109.252 162.274 104.586ZM380.581 61.1858C373.488 54.8391 363.174 51.6658 349.641 51.6658C336.668 51.6658 326.494 54.9325 319.121 61.4658C311.748 67.9991 308.061 77.6125 308.061 90.3058C308.061 103.279 311.841 112.986 319.401 119.426C326.961 125.772 337.601 128.946 351.321 128.946C364.388 128.946 374.328 126.426 381.141 121.386C387.954 116.346 391.361 109.346 391.361 100.386H364.341C364.341 103.652 363.221 106.266 360.981 108.226C358.834 110.186 355.428 111.166 350.761 111.166C345.628 111.166 341.848 109.812 339.421 107.106C337.088 104.399 335.921 100.386 335.921 95.0658H391.361V90.3058C391.361 77.2391 387.768 67.5325 380.581 61.1858ZM336.061 81.9058C337.088 73.5991 341.988 69.4458 350.761 69.4458C354.681 69.4458 357.714 70.5658 359.861 72.8058C362.101 75.0458 363.221 78.0791 363.221 81.9058H336.061ZM481.101 72.2458V53.3458H465.421V30.9458H444.701L438.681 53.3458H427.201V72.2458H437.561V109.206C437.561 116.392 439.754 121.479 444.141 124.466C448.621 127.452 454.968 128.946 463.181 128.946C465.794 128.946 468.874 128.712 472.421 128.246C475.968 127.779 478.861 127.172 481.101 126.426V110.046H473.261C470.274 110.046 468.221 109.299 467.101 107.806C465.981 106.219 465.421 103.746 465.421 100.386V72.2458H481.101ZM553.388 61.1858C546.295 54.8391 535.981 51.6658 522.448 51.6658C509.475 51.6658 499.301 54.9325 491.928 61.4658C484.555 67.9991 480.868 77.6125 480.868 90.3058C480.868 103.279 484.648 112.986 492.208 119.426C499.768 125.772 510.408 128.946 524.128 128.946C537.195 128.946 547.135 126.426 553.948 121.386C559.256 117.459 562.496 112.344 563.669 106.038C563.628 106.749 563.607 107.478 563.607 108.226C563.607 122.039 572.287 128.946 589.647 128.946C595.527 128.946 600.66 128.106 605.047 126.426C609.434 124.746 613.4 122.506 616.947 119.706C618.254 122.599 620.634 124.886 624.087 126.566C627.634 128.152 632.114 128.946 637.527 128.946C640.327 128.946 642.8 128.712 644.947 128.246C647.094 127.872 648.727 127.499 649.847 127.126C650.492 126.878 651.005 126.669 651.386 126.5V127.266H679.246V83.8658C679.246 80.5991 680.273 77.8458 682.326 75.6058C684.379 73.3658 687.039 72.2458 690.306 72.2458C693.106 72.2458 695.253 73.2258 696.746 75.1858C698.333 77.0525 699.126 79.5725 699.126 82.7458V127.266H726.986V83.8658C726.986 80.5991 728.013 77.8458 730.066 75.6058C732.119 73.3658 734.779 72.2458 738.046 72.2458C740.846 72.2458 742.993 73.2258 744.486 75.1858C746.073 77.0525 746.866 79.5725 746.866 82.7458V127.266H774.726V79.3858C774.726 70.5191 772.626 63.7058 768.426 58.9458C764.226 54.0925 757.926 51.6658 749.526 51.6658C744.579 51.6658 739.819 52.8325 735.246 55.1658C730.766 57.4058 727.079 60.4858 724.186 64.4058C720.359 55.9125 712.893 51.6658 701.786 51.6658C696.653 51.6658 691.753 52.8325 687.086 55.1658C682.513 57.4058 678.826 60.4858 676.026 64.4058L674.206 53.3458H651.386V110.046H647.047C645.554 110.046 644.434 109.532 643.687 108.506C642.94 107.479 642.567 106.172 642.567 104.586V75.7458C642.567 67.2525 639.02 61.1391 631.927 57.4058C624.834 53.5791 615.64 51.6658 604.347 51.6658C591.934 51.6658 582.367 53.7191 575.647 57.8258C569.02 61.9325 565.707 67.4858 565.707 74.4858C565.707 75.3258 565.754 75.9791 565.847 76.4458H593.287V75.8858C593.287 73.6458 594.314 72.0125 596.367 70.9858C598.514 69.9591 601.034 69.4458 603.927 69.4458C607.1 69.4458 609.667 70.1925 611.627 71.6858C613.68 73.1791 614.707 75.3725 614.707 78.2658V81.9058C602.947 81.9058 593.427 82.6058 586.147 84.0058C578.867 85.4058 573.267 88.0191 569.347 91.8458C566.661 94.4664 564.917 97.9379 564.117 102.26C564.151 101.645 564.168 101.02 564.168 100.386H537.148C537.148 103.652 536.028 106.266 533.788 108.226C531.641 110.186 528.235 111.166 523.568 111.166C518.435 111.166 514.655 109.812 512.228 107.106C509.895 104.399 508.728 100.386 508.728 95.0658H564.168V90.3058C564.168 77.2391 560.575 67.5325 553.388 61.1858ZM508.868 81.9058C509.895 73.5991 514.795 69.4458 523.568 69.4458C527.488 69.4458 530.521 70.5658 532.668 72.8058C534.908 75.0458 536.028 78.0791 536.028 81.9058H508.868ZM597.067 97.7258C600.894 95.9525 606.774 95.0658 614.707 95.0658V101.366C614.707 104.259 613.307 106.686 610.507 108.646C607.8 110.606 604.627 111.586 600.987 111.586C594.64 111.586 591.467 109.252 591.467 104.586C591.467 101.692 593.334 99.4058 597.067 97.7258Z" fill="#3A2AFA"/>
<path d="M21.7574 20.9681C21.438 19.086 26.9814 17.3865 32.7872 18.299C41.821 19.7191 48.9727 27.9601 52.0067 29.1635C56.478 30.9428 58.052 27.2871 55.8107 23.3292C53.501 19.24 47.3872 15.7611 47.6153 14.4095C48.026 12.0085 54.288 15.6642 54.6701 12.9951C54.9267 11.2271 50.2502 8.68355 45.8074 7.54863C42.2316 6.63613 34.7206 5.51261 24.3409 10.0352C10.8473 15.9265 5.01299 27.6464 4.04916 39.9253C3.13666 51.571 7.5851 60.2512 7.5851 60.2512C7.5851 60.2512 7.88736 51.5596 12.2445 46.7747C15.4269 43.2844 19.5103 41.9727 23.9417 42.8168C31.3329 44.2311 34.5552 38.8873 31.0021 35.0263C28.6753 32.4998 25.6925 31.7128 22.6071 31.6101C17.2747 31.439 14.406 33.2241 14.252 32.6196C14.0239 31.7014 16.9154 29.5741 20.5825 28.0457C25.4074 26.0382 31.2303 27.4126 32.1428 23.3748C32.5876 21.4072 31.4755 20.3293 28.2931 20.0955C24.2724 19.8046 21.7802 21.105 21.7574 20.9681Z" fill="#3A2AFA"/>
<g clip-path="url(#clip0_445_258)">
<path d="M347.196 13.8161C346.917 13.6295 346.56 13.5793 346.237 13.6821L314.182 23.839C313.749 23.9754 313.46 24.3548 313.46 24.7814V28.8739C313.46 29.3 313.749 29.6801 314.182 29.8165L346.237 39.9731C346.347 40.0089 346.461 40.0256 346.576 40.0256C346.795 40.0256 347.013 39.9621 347.196 39.8394C347.473 39.6528 347.638 39.3518 347.638 39.0305V14.625C347.638 14.3034 347.473 14.0025 347.196 13.8161Z" fill="#3A2AFA"/>
<path d="M273.997 127.266H308.003C308.356 127.266 308.696 127.127 308.934 126.885C309.172 126.642 309.294 126.314 309.267 125.984L308.261 113.744C308.211 113.129 307.653 112.647 306.995 112.647H275.004C274.346 112.647 273.791 113.129 273.74 113.744L272.733 125.984C272.705 126.313 272.826 126.641 273.066 126.885C273.305 127.127 273.644 127.266 273.997 127.266Z" fill="#3A2AFA"/>
<path d="M275.577 108.122H306.422C306.773 108.122 307.114 107.983 307.354 107.742C307.594 107.499 307.715 107.17 307.688 106.841L306.68 94.6025C306.629 93.9868 306.075 93.5044 305.415 93.5044H276.584C275.925 93.5044 275.37 93.9868 275.319 94.6025L274.312 106.841C274.285 107.17 274.405 107.499 274.645 107.742C274.885 107.983 275.224 108.122 275.577 108.122Z" fill="#3A2AFA"/>
<path d="M276.9 75.4559L275.893 87.6981C275.866 88.0277 275.988 88.3564 276.227 88.5981C276.467 88.8403 276.805 88.9794 277.157 88.9794H304.843C305.196 88.9794 305.535 88.8403 305.772 88.5981C306.013 88.3559 306.135 88.0268 306.107 87.6981L305.1 75.4559C305.049 74.8402 304.494 74.3583 303.836 74.3583H278.166C277.506 74.3583 276.951 74.8402 276.9 75.4559Z" fill="#3A2AFA"/>
<path d="M303.262 69.8027C303.614 69.8027 303.954 69.6638 304.194 69.4213C304.431 69.1794 304.553 68.8512 304.526 68.5213L303.52 56.2823C303.468 55.6664 302.912 55.1844 302.255 55.1844H279.745C279.086 55.1844 278.531 55.6664 278.481 56.2823L277.473 68.5216C277.445 68.852 277.567 69.1796 277.807 69.4213C278.047 69.6638 278.386 69.8027 278.738 69.8027H303.262Z" fill="#3A2AFA"/>
<path d="M277.249 50.6594H304.749C305.537 50.6594 306.178 50.0585 306.178 49.3181V40.5474C306.178 39.8085 305.537 39.2083 304.749 39.2083H277.249C276.462 39.2083 275.822 39.8087 275.822 40.5474V49.3206C275.822 50.0585 276.462 50.6594 277.249 50.6594ZM278.678 47.9817V41.8855H281.322V47.9817H278.678ZM284.177 47.9817V41.8855H286.821V47.9817H284.177ZM289.677 47.9817V41.8855H292.322V47.9817H289.677ZM295.176 47.9817V41.8855H297.823V47.9817H295.176ZM300.676 47.9817V41.8855H303.322V47.9817H300.676Z" fill="#3A2AFA"/>
<path d="M309.102 21.3496C304.64 17.993 291.627 7.49889 291.627 7.49889C291.446 7.35489 291.224 7.26575 291 7.26575C290.775 7.26575 290.555 7.35489 290.373 7.49889C290.373 7.49889 277.361 17.9933 272.898 21.3496C272.649 21.5384 272.479 21.8188 272.479 22.1423C272.479 22.6919 272.954 23.1373 273.541 23.1373C273.541 23.1373 273.542 23.1373 273.543 23.1373H278.481V33.6885C278.481 34.2378 278.955 34.6835 279.542 34.6835H291H302.458C303.043 34.6835 303.519 34.2378 303.519 33.6885V23.1373H308.457C308.458 23.1373 308.459 23.1373 308.46 23.1373C309.044 23.1373 309.52 22.6919 309.52 22.1423C309.52 21.8186 309.352 21.5382 309.102 21.3496ZM291 30.5323C288.817 30.5323 287.048 28.8741 287.048 26.8275C287.048 24.7808 288.817 23.1229 291 23.1229C293.182 23.1229 294.952 24.7808 294.952 26.8275C294.952 28.8738 293.182 30.5323 291 30.5323Z" fill="#3A2AFA"/>
</g>
<path d="M790.516 25.9446C790.029 25.1842 789.234 24.6782 788.342 24.5585L742.342 18.425C740.683 18.2072 739.122 19.3817 738.895 21.0592C738.668 22.7368 739.852 24.2825 741.529 24.506L748.067 25.3768V33.1663L732.734 31.5225V16.2598L738.352 7.83239C738.966 6.91239 739.036 5.73471 738.539 4.75038C738.039 3.76282 737.049 3.11881 735.945 3.0667L671.545 0.000144206C670.511 -0.00919958 669.508 0.435709 668.904 1.28204L653.571 22.7487C653.509 22.8346 653.497 22.9388 653.445 23.0279L610.392 18.416C609.521 18.324 608.662 18.6033 608.015 19.1826C607.371 19.7655 607 20.5935 607 21.4643C607 48.5185 638.642 70.531 677.534 70.531H775.668C777.014 70.531 778.204 69.6538 778.599 68.3658L790.866 28.4991C791.129 27.6376 791.001 26.7022 790.516 25.9446ZM754.201 33.7309V26.1929L766.467 27.8274V35.1353L754.182 33.8196C754.182 33.7894 754.201 33.7618 754.201 33.7309ZM701.892 7.58766L730.247 8.93712L727.115 13.6291C726.781 14.1319 726.6 14.727 726.6 15.3311V30.867L698.988 27.9075L701.892 7.58766ZM672.924 6.20765L695.737 7.29333L692.897 27.1622C692.894 27.1927 692.907 27.2236 692.904 27.2542L660.378 23.7704L672.924 6.20765ZM773.401 64.3979H677.534C650.43 64.3979 627.216 53.1645 617.727 37.3253L776.308 54.9466L773.401 64.3979ZM778.145 48.9817L614.75 30.8267C614.099 28.8915 613.578 26.9228 613.339 24.9021L780.059 42.7623L778.145 48.9817ZM781.896 36.7917L772.601 35.7951V28.6464L783.938 30.1583L781.896 36.7917Z" fill="#3A2AFA"/>
<defs>
<clipPath id="clip0_445_258">
<rect width="128" height="120" fill="white" transform="translate(227 7.26575)"/>
</clipPath>
</defs>
</svg>
