<svg width="220" height="127" viewBox="0 0 220 127" fill="none" xmlns="http://www.w3.org/2000/svg">
<path fill-rule="evenodd" clip-rule="evenodd" d="M9.71241 65.4685C9.00899 65.9359 8.60997 66.201 8.3607 66.0081L8.34436 65.9599V127H36.2044V83.6C36.2044 80.3334 37.231 77.58 39.2844 75.34C41.3377 73.1 43.9977 71.98 47.2644 71.98C50.0644 71.98 52.211 72.96 53.7044 74.92C55.291 76.7867 56.0844 79.3067 56.0844 82.48V127H83.9444V83.6C83.9444 80.3334 84.971 77.58 87.0244 75.34C89.0777 73.1 91.7377 71.98 95.0044 71.98C97.8044 71.98 99.951 72.96 101.444 74.92C103.031 76.7867 103.824 79.3067 103.824 82.48V127H131.684V79.12C131.684 70.2534 129.584 63.44 125.384 58.68C121.184 53.8267 114.884 51.4 106.484 51.4C101.538 51.4 96.7777 52.5667 92.2044 54.9C87.7244 57.14 84.0377 60.22 81.1444 64.14C77.3177 55.6467 69.851 51.4 58.7444 51.4C56.2089 51.4 53.7304 51.6846 51.3088 52.2539C54.0206 54.0344 56.824 55.4876 59.5787 56.9155C59.8001 57.0303 60.0213 57.1449 60.242 57.2595C63.3044 58.8506 66.1458 59.9178 68.1248 60.661C69.728 61.2632 70.7653 61.6528 70.8955 61.9361C71.3289 62.8885 65.0041 68.8654 52.7937 68.8654C45.4901 68.8654 39.2321 66.8335 33.6098 65.008C28.6297 63.391 24.1484 61.9359 19.881 62.1984C14.1021 62.5518 11.2139 64.4709 9.71241 65.4685Z" fill="black"/>
<path d="M22.4451 20.7023C22.1168 18.8203 27.8142 17.1208 33.7813 18.0333C43.066 19.4533 50.4164 27.6944 53.5347 28.8977C58.1302 30.6771 59.7479 27.0214 57.4444 23.0634C55.0704 18.9743 48.7869 15.4954 49.0213 14.1437C49.4433 11.7427 55.8793 15.3984 56.272 12.7294C56.5358 10.9614 51.7294 8.4178 47.1632 7.28288C43.488 6.37038 35.7684 5.24686 25.1003 9.76944C11.2319 15.6608 5.23557 27.3807 4.24497 39.6595C3.30712 51.3053 7.87913 59.9855 7.87913 59.9855C7.87913 59.9855 8.18979 51.2939 12.668 46.509C15.9388 43.0187 20.1356 41.7069 24.69 42.551C32.2866 43.9654 35.5984 38.6216 31.9466 34.7605C29.5551 32.2341 26.4895 31.447 23.3184 31.3444C17.8379 31.1733 14.8895 32.9583 14.7313 32.3538C14.4968 31.4356 17.4686 29.3083 21.2376 27.7799C26.1965 25.7724 32.1811 27.1469 33.1189 23.1091C33.5761 21.1415 32.4331 20.0636 29.1624 19.8298C25.03 19.5389 22.4685 20.8392 22.4451 20.7023Z" fill="black"/>
<g clip-path="url(#clip0_434_208)">
<path d="M211.979 13.5503C211.693 13.3637 211.325 13.3135 210.994 13.4164L178.048 23.5733C177.603 23.7097 177.306 24.089 177.306 24.5156V28.6081C177.306 29.0343 177.603 29.4143 178.048 29.5508L210.994 39.7074C211.107 39.7432 211.224 39.7598 211.342 39.7598C211.567 39.7598 211.791 39.6964 211.979 39.5737C212.264 39.3871 212.433 39.0861 212.433 38.7648V14.3592C212.433 14.0377 212.264 13.7367 211.979 13.5503Z" fill="black"/>
<path d="M130.396 23.5733L97.4508 13.4164C97.1184 13.3135 96.7509 13.3637 96.4657 13.5503C96.1803 13.737 96.0115 14.0379 96.0115 14.3595V38.7648C96.0115 39.2471 96.1806 39.3871 96.4657 39.5737C96.6545 39.6961 96.876 39.7598 97.102 39.7598C97.2199 39.7598 97.3364 39.7432 97.4508 39.7074L130.396 29.5508C130.839 29.4143 131.138 29.0345 131.138 28.6081V24.5154C131.138 24.089 130.839 23.7094 130.396 23.5733Z" fill="black"/>
<path d="M136.747 127H171.698C172.06 127 172.41 126.862 172.655 126.619C172.899 126.376 173.024 126.049 172.997 125.719L171.962 113.478C171.911 112.863 171.338 112.382 170.662 112.382H137.782C137.106 112.382 136.535 112.863 136.483 113.478L135.448 125.718C135.419 126.047 135.544 126.375 135.79 126.619C136.036 126.862 136.384 127 136.747 127Z" fill="black"/>
<path d="M138.371 107.856H170.073C170.434 107.856 170.784 107.718 171.031 107.476C171.277 107.233 171.402 106.904 171.374 106.575L170.338 94.3368C170.285 93.7211 169.716 93.2386 169.037 93.2386H139.406C138.729 93.2386 138.158 93.7211 138.106 94.3368L137.071 106.575C137.042 106.904 137.166 107.233 137.413 107.476C137.66 107.718 138.008 107.856 138.371 107.856Z" fill="black"/>
<path d="M139.73 75.1902L138.695 87.4324C138.668 87.762 138.793 88.0907 139.039 88.3324C139.285 88.5746 139.633 88.7137 139.995 88.7137H168.449C168.812 88.7137 169.161 88.5746 169.405 88.3324C169.652 88.0902 169.777 87.761 169.749 87.4324L168.714 75.1902C168.662 74.5745 168.091 74.0925 167.414 74.0925H141.031C140.354 74.0925 139.782 74.5745 139.73 75.1902Z" fill="black"/>
<path d="M166.825 69.5369C167.187 69.5369 167.536 69.398 167.782 69.1556C168.026 68.9136 168.152 68.5855 168.124 68.2556L167.089 56.0166C167.036 55.4007 166.465 54.9187 165.789 54.9187H142.655C141.978 54.9187 141.407 55.4007 141.355 56.0166L140.319 68.2558C140.291 68.5862 140.416 68.9139 140.663 69.1556C140.909 69.398 141.257 69.5369 141.619 69.5369H166.825Z" fill="black"/>
<path d="M140.089 50.3937H168.353C169.163 50.3937 169.821 49.7927 169.821 49.0524V40.2816C169.821 39.5427 169.163 38.9425 168.353 38.9425H140.089C139.28 38.9425 138.622 39.543 138.622 40.2816V49.0548C138.622 49.7927 139.28 50.3937 140.089 50.3937ZM141.558 47.716V41.6197H144.275V47.716H141.558ZM147.21 47.716V41.6197H149.927V47.716H147.21ZM152.863 47.716V41.6197H155.581V47.716H152.863ZM158.514 47.716V41.6197H161.234V47.716H158.514ZM164.167 47.716V41.6197H166.886V47.716H164.167Z" fill="black"/>
<path d="M172.827 21.0838C168.241 17.7273 154.866 7.23314 154.866 7.23314C154.681 7.08914 154.453 7 154.222 7C153.991 7 153.765 7.08914 153.577 7.23314C153.577 7.23314 140.204 17.7275 135.618 21.0838C135.361 21.2727 135.187 21.5531 135.187 21.8766C135.187 22.4261 135.675 22.8716 136.278 22.8716C136.278 22.8716 136.279 22.8716 136.28 22.8716H141.355V33.4228C141.355 33.9721 141.843 34.4178 142.446 34.4178H154.222H165.998C166.6 34.4178 167.089 33.9721 167.089 33.4228V22.8716H172.164C172.166 22.8716 172.166 22.8716 172.167 22.8716C172.767 22.8716 173.256 22.4261 173.256 21.8766C173.257 21.5528 173.084 21.2724 172.827 21.0838ZM154.222 30.2665C151.979 30.2665 150.16 28.6083 150.16 26.5617C150.16 24.5151 151.978 22.8571 154.222 22.8571C156.464 22.8571 158.284 24.5151 158.284 26.5617C158.284 28.6081 156.464 30.2665 154.222 30.2665Z" fill="black"/>
</g>
<defs>
<clipPath id="clip0_434_208">
<rect width="131.556" height="120" fill="white" transform="translate(88.4443 7)"/>
</clipPath>
</defs>
</svg>
