<svg class="logosvg" width="791" height="130" viewBox="0 0 791 130" fill="none" xmlns="http://www.w3.org/2000/svg">
    <path fill-rule="evenodd" clip-rule="evenodd" d="M8.41406 67.0413C8.66604 67.1638 9.05717 66.9039 9.7125 66.4685C11.2139 65.4709 14.1022 63.5518 19.8811 63.1984C24.1485 62.9359 28.6298 64.3909 33.6099 66.0079C39.2322 67.8334 45.4902 69.8654 52.7938 69.8654C65.0042 69.8654 71.329 63.8885 70.8955 62.9361C70.7654 62.6527 69.7281 62.2632 68.1249 61.661C66.1459 60.9177 63.3045 59.8506 60.2421 58.2595C60.0214 58.1449 59.8002 58.0303 59.5788 57.9155C56.8304 56.4908 54.0335 55.041 51.3274 53.2661C53.7653 52.6888 56.2608 52.4002 58.8141 52.4002C69.9207 52.4002 77.3874 56.6468 81.2141 65.1402C84.1074 61.2202 87.7941 58.1402 92.2741 55.9002C96.8474 53.5668 101.607 52.4002 106.554 52.4002C114.954 52.4002 121.254 54.8268 125.454 59.6802C129.654 64.4402 131.754 71.2535 131.754 80.1202V128H103.894V83.4802C103.894 80.3068 103.101 77.7868 101.514 75.9202C100.021 73.9602 97.8741 72.9802 95.0741 72.9802C91.8074 72.9802 89.1474 74.1002 87.0941 76.3402C85.0407 78.5802 84.0141 81.3335 84.0141 84.6002V128H56.1541V83.4802C56.1541 80.3068 55.3607 77.7868 53.7741 75.9202C52.2807 73.9602 50.1341 72.9802 47.3341 72.9802C44.0674 72.9802 41.4074 74.1002 39.3541 76.3402C37.3007 78.5802 36.2741 81.3335 36.2741 84.6002V128H8.41406V67.0413ZM202.734 58.1402C195.641 54.3135 186.447 52.4002 175.154 52.4002C162.741 52.4002 153.174 54.4535 146.454 58.5602C139.827 62.6668 136.514 68.2202 136.514 75.2202C136.514 76.0602 136.561 76.7135 136.654 77.1802H164.094V76.6202C164.094 74.3802 165.121 72.7468 167.174 71.7202C169.321 70.6935 171.841 70.1802 174.734 70.1802C177.907 70.1802 180.474 70.9268 182.434 72.4202C184.487 73.9135 185.514 76.1068 185.514 79.0002V82.6402C173.754 82.6402 164.234 83.3402 156.954 84.7402C149.674 86.1402 144.074 88.7535 140.154 92.5802C136.327 96.3135 134.414 101.774 134.414 108.96C134.414 122.774 143.094 129.68 160.454 129.68C166.334 129.68 171.467 128.84 175.854 127.16C180.241 125.48 184.207 123.24 187.754 120.44C189.061 123.334 191.441 125.62 194.894 127.3C198.441 128.887 202.921 129.68 208.334 129.68C211.134 129.68 213.607 129.447 215.754 128.98C217.901 128.607 219.534 128.234 220.654 127.86C221.299 127.612 221.812 127.404 222.193 127.235V128H250.053V95.1002C250.053 89.2202 251.313 84.7868 253.833 81.8002C256.446 78.8135 260.646 77.3202 266.433 77.3202H275.393V53.9402C275.393 53.8468 274.553 53.5668 272.873 53.1002C271.193 52.5402 269.28 52.2602 267.133 52.2602C262.56 52.2602 258.453 53.3802 254.813 55.6202C251.173 57.7668 248.513 60.9868 246.833 65.2802L245.013 54.0802H222.193V110.78H217.854C216.361 110.78 215.241 110.267 214.494 109.24C213.747 108.214 213.374 106.907 213.374 105.32V76.4802C213.374 67.9868 209.827 61.8735 202.734 58.1402ZM162.274 105.32C162.274 102.427 164.141 100.14 167.874 98.4602C171.701 96.6868 177.581 95.8002 185.514 95.8002V102.1C185.514 104.994 184.114 107.42 181.314 109.38C178.607 111.34 175.434 112.32 171.794 112.32C165.447 112.32 162.274 109.987 162.274 105.32ZM380.581 61.9202C373.488 55.5735 363.174 52.4002 349.641 52.4002C336.668 52.4002 326.494 55.6668 319.121 62.2002C311.748 68.7335 308.061 78.3468 308.061 91.0402C308.061 104.014 311.841 113.72 319.401 120.16C326.961 126.507 337.601 129.68 351.321 129.68C364.388 129.68 374.328 127.16 381.141 122.12C387.954 117.08 391.361 110.08 391.361 101.12H364.341C364.341 104.387 363.221 107 360.981 108.96C358.834 110.92 355.428 111.9 350.761 111.9C345.628 111.9 341.848 110.547 339.421 107.84C337.088 105.134 335.921 101.12 335.921 95.8002H391.361V91.0402C391.361 77.9735 387.768 68.2668 380.581 61.9202ZM336.061 82.6402C337.088 74.3335 341.988 70.1802 350.761 70.1802C354.681 70.1802 357.714 71.3002 359.861 73.5402C362.101 75.7802 363.221 78.8135 363.221 82.6402H336.061ZM481.101 72.9802V54.0802H465.421V31.6802H444.701L438.681 54.0802H427.201V72.9802H437.561V109.94C437.561 117.127 439.754 122.214 444.141 125.2C448.621 128.187 454.968 129.68 463.181 129.68C465.794 129.68 468.874 129.447 472.421 128.98C475.968 128.514 478.861 127.907 481.101 127.16V110.78H473.261C470.274 110.78 468.221 110.034 467.101 108.54C465.981 106.954 465.421 104.48 465.421 101.12V72.9802H481.101ZM553.388 61.9202C546.295 55.5735 535.981 52.4002 522.448 52.4002C509.475 52.4002 499.301 55.6668 491.928 62.2002C484.555 68.7335 480.868 78.3468 480.868 91.0402C480.868 104.014 484.648 113.72 492.208 120.16C499.768 126.507 510.408 129.68 524.128 129.68C537.195 129.68 547.135 127.16 553.948 122.12C559.256 118.194 562.496 113.078 563.669 106.773C563.628 107.483 563.607 108.212 563.607 108.96C563.607 122.774 572.287 129.68 589.647 129.68C595.527 129.68 600.66 128.84 605.047 127.16C609.434 125.48 613.4 123.24 616.947 120.44C618.254 123.334 620.634 125.62 624.087 127.3C627.634 128.887 632.114 129.68 637.527 129.68C640.327 129.68 642.8 129.447 644.947 128.98C647.094 128.607 648.727 128.234 649.847 127.86C650.492 127.612 651.005 127.404 651.386 127.235V128H679.246V84.6002C679.246 81.3335 680.273 78.5802 682.326 76.3402C684.379 74.1002 687.039 72.9802 690.306 72.9802C693.106 72.9802 695.253 73.9602 696.746 75.9202C698.333 77.7868 699.126 80.3068 699.126 83.4802V128H726.986V84.6002C726.986 81.3335 728.013 78.5802 730.066 76.3402C732.119 74.1002 734.779 72.9802 738.046 72.9802C740.846 72.9802 742.993 73.9602 744.486 75.9202C746.073 77.7868 746.866 80.3068 746.866 83.4802V128H774.726V80.1202C774.726 71.2535 772.626 64.4402 768.426 59.6802C764.226 54.8268 757.926 52.4002 749.526 52.4002C744.579 52.4002 739.819 53.5668 735.246 55.9002C730.766 58.1402 727.079 61.2202 724.186 65.1402C720.359 56.6468 712.893 52.4002 701.786 52.4002C696.653 52.4002 691.753 53.5668 687.086 55.9002C682.513 58.1402 678.826 61.2202 676.026 65.1402L674.206 54.0802H651.386V110.78H647.047C645.554 110.78 644.434 110.267 643.687 109.24C642.94 108.214 642.567 106.907 642.567 105.32V76.4802C642.567 67.9868 639.02 61.8735 631.927 58.1402C624.834 54.3135 615.64 52.4002 604.347 52.4002C591.934 52.4002 582.367 54.4535 575.647 58.5602C569.02 62.6668 565.707 68.2202 565.707 75.2202C565.707 76.0602 565.754 76.7135 565.847 77.1802H593.287V76.6202C593.287 74.3802 594.314 72.7468 596.367 71.7202C598.514 70.6935 601.034 70.1802 603.927 70.1802C607.1 70.1802 609.667 70.9268 611.627 72.4202C613.68 73.9135 614.707 76.1068 614.707 79.0002V82.6402C602.947 82.6402 593.427 83.3402 586.147 84.7402C578.867 86.1402 573.267 88.7535 569.347 92.5802C566.661 95.2008 564.917 98.6722 564.117 102.994C564.151 102.38 564.168 101.755 564.168 101.12H537.148C537.148 104.387 536.028 107 533.788 108.96C531.641 110.92 528.235 111.9 523.568 111.9C518.435 111.9 514.655 110.547 512.228 107.84C509.895 105.134 508.728 101.12 508.728 95.8002H564.168V91.0402C564.168 77.9735 560.575 68.2668 553.388 61.9202ZM508.868 82.6402C509.895 74.3335 514.795 70.1802 523.568 70.1802C527.488 70.1802 530.521 71.3002 532.668 73.5402C534.908 75.7802 536.028 78.8135 536.028 82.6402H508.868ZM597.067 98.4602C600.894 96.6868 606.774 95.8002 614.707 95.8002V102.1C614.707 104.994 613.307 107.42 610.507 109.38C607.8 111.34 604.627 112.32 600.987 112.32C594.64 112.32 591.467 109.987 591.467 105.32C591.467 102.427 593.334 100.14 597.067 98.4602Z" fill="black"/>
    <path d="M21.7574 21.7025C21.438 19.8204 26.9814 18.1209 32.7872 19.0334C41.821 20.4535 48.9727 28.6945 52.0067 29.8978C56.478 31.6772 58.052 28.0215 55.8107 24.0635C53.501 19.9744 47.3872 16.4955 47.6153 15.1439C48.026 12.7428 54.288 16.3985 54.6701 13.7295C54.9267 11.9615 50.2502 9.41792 45.8074 8.283C42.2316 7.3705 34.7206 6.24699 24.3409 10.7696C10.8473 16.6609 5.01299 28.3808 4.04916 40.6596C3.13666 52.3054 7.5851 60.9856 7.5851 60.9856C7.5851 60.9856 7.88736 52.294 12.2445 47.5091C15.4269 44.0188 19.5103 42.7071 23.9417 43.5511C31.3329 44.9655 34.5552 39.6217 31.0021 35.7607C28.6753 33.2342 25.6925 32.4471 22.6071 32.3445C17.2747 32.1734 14.406 33.9585 14.252 33.3539C14.0239 32.4357 16.9154 30.3085 20.5825 28.78C25.4074 26.7725 31.2303 28.147 32.1428 24.1092C32.5876 22.1416 31.4755 21.0637 28.2931 20.8299C24.2724 20.539 21.7802 21.8393 21.7574 21.7025Z" fill="black"/>
    <g clip-path="url(#clip0_335_480)">
        <path d="M347.196 14.5505C346.917 14.3639 346.56 14.3136 346.237 14.4165L314.182 24.5734C313.749 24.7098 313.46 25.0892 313.46 25.5158V29.6083C313.46 30.0344 313.749 30.4145 314.182 30.5509L346.237 40.7075C346.347 40.7433 346.461 40.7599 346.576 40.7599C346.795 40.7599 347.013 40.6965 347.196 40.5738C347.473 40.3872 347.638 40.0862 347.638 39.7649V15.3594C347.638 15.0378 347.473 14.7368 347.196 14.5505Z" fill="black"/>
        <path d="M273.997 128H308.003C308.356 128 308.696 127.862 308.934 127.619C309.172 127.376 309.294 127.049 309.267 126.719L308.261 114.478C308.211 113.863 307.653 113.382 306.995 113.382H275.004C274.346 113.382 273.791 113.863 273.74 114.478L272.733 126.718C272.705 127.048 272.826 127.375 273.066 127.619C273.305 127.862 273.644 128 273.997 128Z" fill="black"/>
        <path d="M275.577 108.856H306.422C306.773 108.856 307.114 108.718 307.354 108.476C307.594 108.233 307.715 107.904 307.688 107.575L306.68 95.3369C306.629 94.7212 306.075 94.2388 305.415 94.2388H276.584C275.925 94.2388 275.37 94.7212 275.319 95.3369L274.312 107.575C274.285 107.904 274.405 108.233 274.645 108.476C274.885 108.718 275.224 108.856 275.577 108.856Z" fill="black"/>
        <path d="M276.9 76.1903L275.893 88.4325C275.866 88.7621 275.988 89.0908 276.227 89.3325C276.467 89.5747 276.805 89.7138 277.157 89.7138H304.843C305.196 89.7138 305.535 89.5747 305.772 89.3325C306.013 89.0903 306.135 88.7611 306.107 88.4325L305.1 76.1903C305.049 75.5746 304.494 75.0927 303.836 75.0927H278.166C277.506 75.0927 276.951 75.5746 276.9 76.1903Z" fill="black"/>
        <path d="M303.262 70.537C303.614 70.537 303.954 70.3982 304.194 70.1557C304.431 69.9138 304.553 69.5856 304.526 69.2557L303.52 57.0167C303.468 56.4008 302.912 55.9188 302.255 55.9188H279.745C279.086 55.9188 278.531 56.4008 278.481 57.0167L277.473 69.256C277.445 69.5863 277.567 69.914 277.807 70.1557C278.047 70.3982 278.386 70.537 278.738 70.537H303.262Z" fill="black"/>
        <path d="M277.249 51.3938H304.749C305.537 51.3938 306.178 50.7928 306.178 50.0525V41.2817C306.178 40.5429 305.537 39.9426 304.749 39.9426H277.249C276.462 39.9426 275.822 40.5431 275.822 41.2817V50.055C275.822 50.7928 276.462 51.3938 277.249 51.3938ZM278.678 48.7161V42.6198H281.322V48.7161H278.678ZM284.177 48.7161V42.6198H286.821V48.7161H284.177ZM289.677 48.7161V42.6198H292.322V48.7161H289.677ZM295.176 48.7161V42.6198H297.823V48.7161H295.176ZM300.676 48.7161V42.6198H303.322V48.7161H300.676Z" fill="black"/>
        <path d="M309.102 22.084C304.64 18.7274 291.627 8.23326 291.627 8.23326C291.446 8.08926 291.224 8.00012 291 8.00012C290.775 8.00012 290.555 8.08926 290.373 8.23326C290.373 8.23326 277.361 18.7276 272.898 22.084C272.649 22.2728 272.479 22.5532 272.479 22.8767C272.479 23.4262 272.954 23.8717 273.541 23.8717C273.541 23.8717 273.542 23.8717 273.543 23.8717H278.481V34.4229C278.481 34.9722 278.955 35.4179 279.542 35.4179H291H302.458C303.043 35.4179 303.519 34.9722 303.519 34.4229V23.8717H308.457C308.458 23.8717 308.459 23.8717 308.46 23.8717C309.044 23.8717 309.52 23.4262 309.52 22.8767C309.52 22.5529 309.352 22.2725 309.102 22.084ZM291 31.2667C288.817 31.2667 287.048 29.6084 287.048 27.5618C287.048 25.5152 288.817 23.8573 291 23.8573C293.182 23.8573 294.952 25.5152 294.952 27.5618C294.952 29.6082 293.182 31.2667 291 31.2667Z" fill="black"/>
    </g>
    <path d="M790.516 26.679C790.029 25.9185 789.234 25.4125 788.342 25.2929L742.342 19.1594C740.683 18.9416 739.122 20.116 738.895 21.7936C738.668 23.4712 739.852 25.0169 741.529 25.2404L748.067 26.1112V33.9007L732.734 32.2569V16.9941L738.352 8.56677C738.966 7.64676 739.036 6.46909 738.539 5.48476C738.039 4.49719 737.049 3.85318 735.945 3.80107L671.545 0.734519C670.511 0.725175 669.508 1.17008 668.904 2.01642L653.571 23.483C653.509 23.5689 653.497 23.6732 653.445 23.7623L610.392 19.1504C609.521 19.0584 608.662 19.3376 608.015 19.917C607.371 20.4999 607 21.3279 607 22.1986C607 49.2529 638.642 71.2654 677.534 71.2654H775.668C777.014 71.2654 778.204 70.3881 778.599 69.1001L790.866 29.2334C791.129 28.372 791.001 27.4365 790.516 26.679ZM754.201 34.4652V26.9273L766.467 28.5618V35.8697L754.182 34.554C754.182 34.5238 754.201 34.4961 754.201 34.4652ZM701.892 8.32203L730.247 9.67149L727.115 14.3635C726.781 14.8663 726.6 15.4614 726.6 16.0655V31.6014L698.988 28.6419L701.892 8.32203ZM672.924 6.94203L695.737 8.0277L692.897 27.8965C692.894 27.9271 692.907 27.958 692.904 27.9885L660.378 24.5048L672.924 6.94203ZM773.401 65.1323H677.534C650.43 65.1323 627.216 53.8989 617.727 38.0597L776.308 55.681L773.401 65.1323ZM778.145 49.7161L614.75 31.5611C614.099 29.6259 613.578 27.6572 613.339 25.6364L780.059 43.4967L778.145 49.7161ZM781.896 37.526L772.601 36.5295V29.3808L783.938 30.8927L781.896 37.526Z" fill="black"/>
    <defs>
        <clipPath id="clip0_335_480">
        <rect width="128" height="120" fill="white" transform="translate(227 8.00012)"/>
        </clipPath>
    </defs>
</svg>
